<?xml version="1.0" encoding="utf-8"?>
<!-- Generator: Adobe Illustrator 18.1.0, SVG Export Plug-In . SVG Version: 6.00 Build 0)  -->
<!DOCTYPE svg PUBLIC "-//W3C//DTD SVG 1.1//EN" "http://www.w3.org/Graphics/SVG/1.1/DTD/svg11.dtd">
<svg version="1.1" id="Layer_1" xmlns="http://www.w3.org/2000/svg" xmlns:xlink="http://www.w3.org/1999/xlink" x="0px" y="0px"
	 viewBox="0 310 595.3 221.9" enable-background="new 0 310 595.3 221.9" xml:space="preserve">
<path fill="#FFFFFF" d="M554.3,411.8v28.7c-2.7-2.4-6.9-6.5-16.9-6.5c-13.4,0-26.9,9-28.7,28.8v-2.4c0-5-0.4-13.8-6.7-20
	c-2.2-2-7.4-6.1-17.9-6.1c-14.6,0-19.6,7.4-21.8,10.5v-8.8h-25v29.1c-0.9-8.9-4.7-17.1-10.1-22.3c-5.1-4.9-14.3-9.5-27.8-9.6
	c-17.2-0.1-29.6,7.3-35.4,19.2l5.7-16.4h-27.4l-6.7,27.8c-1.5,7.7-2.1,9.9-3.2,20.2c-1.3-9.9-1.7-11.7-3.1-19.5l-6.5-28.6h-27.5
	l6,17.4c-1.5-3.5-3.7-6.9-7-10.2c-8.1-7.8-18.6-9.9-26.6-9.9c-21.5,0-36.5,14-36.5,35.6c-0.9-2.6-2.4-5.3-4.9-7.8
	c-3.6-3.6-6.9-4.5-10.6-5.5c2.9-1.4,5.3-2.4,7.7-4.9c3.6-3.6,6.4-9.2,6.4-15.9c0-5.8-2.1-11.8-6.1-15.6c-6.8-6.7-17.3-7-22.9-7.3
	h-53.5c-4.8-5.1-10.7-7.8-17.7-8.1c-0.4,0-0.7,0-1.1,0c-5.6,0-10.2,1.5-13.8,4.4c-3.6,2.9-5.4,6.3-5.4,10c0,2.3,0.7,4.4,2.1,6.1
	c1.4,1.7,3.5,2.6,6.2,2.6c2.3,0,4.2-0.8,5.7-2.3c1.5-1.5,2.3-3.3,2.3-5.3c0-1.7-0.6-3.4-1.9-5.2c-1-1.4-1.5-2.5-1.5-3.3
	c0-1.2,0.5-2.1,1.5-2.7c1-0.6,2.5-0.9,4.5-0.9c4.1,0,7.4,1.4,10.1,4.2c2.7,2.8,4,6.4,4,10.7c0,7.3-3,12.8-9,16.4
	c-6,3.6-15.6,5.5-28.8,5.5c-14.7,0-24.9,2.7-30.5,8.2c-5.6,5.5-8.4,11.6-8.4,18.3c0,4.6,1.6,8.4,4.8,11.5c3.2,3.1,7,4.7,11.4,4.7
	c3.7,0,6.7-1.1,9.1-3.4c2.4-2.3,3.5-5.1,3.5-8.6c0-2.4-0.7-4.3-2.1-5.6c-1.4-1.3-3.1-2-5-2c-2,0-3.7,0.8-5,2.3c-1.3,1.5-2,3.5-2,5.9
	c0,0.3,0,0.8,0.1,1.5l0.1,1c0,2.3-1.1,3.4-3.2,3.4c-1.8,0-3.6-1-5.4-2.9c-1.7-2-2.6-4.5-2.6-7.5c0-5.1,2.4-9.3,7.2-12.6
	c4.8-3.4,10.3-5.1,16.4-5.1c7.6,0,13.6,2.2,18.1,6.5c4.5,4.3,6.7,9.4,6.7,15.3c0,8.8-4.5,16.4-13.6,22.7c-9.1,6.3-19.9,9.5-32.7,9.5
	c-13.4,0-24.7-4-33.7-12.1c-9-8.1-13.5-16.6-13.5-25.7c0-4.7,1.5-8.7,4.6-12.1c3.1-3.4,6.3-5.1,9.7-5.1c2.7,0,5.4,1.2,8.2,3.6
	c2.6,2.2,4.8,3.3,6.4,3.3c1.5,0,2.7-0.5,3.5-1.5c0.8-1,1.2-2,1.2-3.1c0-4.3-3.8-6.5-11.3-6.5c-1.1,0-2-0.3-2.7-0.9
	c-0.6-0.6-1.3-1.9-2.1-3.9c-0.8-2-1.1-4.4-1.1-7.3c0-6.4,2.6-12.1,7.9-17.1c5.2-5,10.9-7.5,16.9-7.5c3.8,0,7,1,9.6,3.1
	c2.7,2,4,4.7,4,8c0,2.2-0.4,4.3-1.3,6.4c-0.5,1.3-0.8,2.1-0.8,2.5c0,1,0.5,1.5,1.5,1.5c2,0,3.9-1.4,5.7-4.2c1.8-2.8,2.7-5.8,2.7-9.1
	c0-4.3-1.8-8-5.5-11.1h26.1l4-12.6h31.5l4,12.6h30.5h0.2h25.4v-4.9c1.8,2,3.1,3.5,6.8,4.9c3.7,1.4,7.3,1.7,9.9,1.7
	c17.7,0,28.3-13.3,29.8-31.9c1,16.9,12.2,32.8,37.7,32.8c25.1,0,39.6-14.7,39.6-35.6c0-3.2-0.4-6.4-1.1-9.4l14.2,42.5h27.9
	l14.6-43.7c-0.8,3.2-1.3,6.6-1.3,10.3c0,18.4,12,36.1,36.6,36.1c15.9,0,27.4-6.3,35.2-18.2l-21.8-9.1c-2.7,5.4-6,8.6-12,8.6
	c-4.9,0-7.3-2.4-7.9-3.1c-2.9-2.9-3.1-6.4-3.2-9.3h46.4c-0.3-10.1-0.4-21.1-10.1-30.7c-8.1-7.8-18.6-9.9-26.6-9.9
	c-15.9,0-28.3,7.7-33.6,20.4l5.9-17.7h-27.7l-5.4,23.4c-1.8,9.6-2.2,12-3.2,21c-1.2-10-1.4-12-2.8-19.8l-5.3-24.6h-27.9l5.7,17.1
	c-1.8-4-4.2-7.6-7-10.3c-5.1-4.9-14.3-9.5-27.8-9.6c-22.8-0.1-37.1,12.8-39,32.2c-0.9-21.6-14.9-31.3-28.9-31.3
	c-10,0-14.3,4.1-16.9,6.5v-28.7h-26.4v89.8L144,318.1h-32.5l-33.6,88c-3.1-1.6-6.6-2.4-10.6-2.4c-5.1,0-9.9,1.4-14.6,4.1
	c-4.7,2.7-8.6,6.3-11.6,10.7c-3,4.4-4.6,9.2-4.6,14.4c0,4.6,1.2,9.5,3.7,14.8c-8.4,1.2-14.8,4.3-19.1,9.5s-6.4,11.4-6.4,18.9
	c0,6.1,1.4,11.9,4.3,17.2c2.9,5.4,6.8,9.9,11.7,13.6c5,3.7,10.2,6.5,15.7,8.4c5.5,1.9,12.7,2.9,21.5,2.9c10.9,0,20.2-1.6,27.8-4.9
	c7.6-3.3,14-8.3,19.4-15c5.3-6.7,8-13.7,8-21c0-9.6-4.3-17.5-13-23.7c9.1-0.3,16.1-1.4,21.2-3.3c5-1.9,9.2-5.2,12.5-9.8
	c1.6-2.2,2.7-4.5,3.6-6.9v68.6h55.3c7-0.3,16.4-0.5,23.2-7.4c4.2-4.2,6.3-10.5,6.6-16.7c3.4,14.7,15.2,26.8,35.6,26.8
	c15.9,0,27.4-6.3,35.2-18.2l-21.8-9.1c-2.7,5.4-6,8.6-12,8.6c-4.9,0-7.3-2.4-7.9-3.1c-2.9-2.9-3.1-6.4-3.2-9.3h46.4
	c-0.1-5.4-0.2-11-1.8-16.5l13.6,39.6c0.5,1.5,2,5.6,2,6.8c0,2.4-2,3.2-5.6,3.2c-2.4,0-5.2-0.3-7.4-0.4v18.8c5.3,0.6,8.1,0.9,14,0.9
	c8.2,0,12.8-0.1,18.4-5.6c4.2-4.1,6-9.5,7.8-14.5l15.8-45.7c-0.6,2.9-1,6-1,9.2c0,17.8,11,35.2,37.8,35.2
	c23.3,0,37.4-12.7,39.3-31.2v28.7h26.4v-35.3c0-3.6,0.3-10.9,9.6-10.9c8.8,0,9,6.7,9,10v36.2h26.4v-29.7
	c1.6,18.3,12.2,31.4,29.6,31.4c2.7,0,6.3-0.3,10-1.7c3.7-1.4,5-2.8,6.8-4.9v4.9h25.6v-90.4H554.3z M418.4,356.2c3.6,0,7.7,2,8.8,6.8
	c0.3,1,0.3,2,0.4,3.1h-19.2C409,363.1,410.5,356.2,418.4,356.2z M288,357.9c12-0.4,12.3,12.9,12.3,16.9c0,10-2.9,17.8-12.2,17.8
	c-10.8,0-12.3-11.1-12.3-17.5C275.8,367.6,278,358.2,288,357.9z M206.9,362c1.8-1.8,4.2-2.9,6.7-2.9c0.9,0,7.2,0,9.5,8.3
	c0.5,2.3,0.8,4.7,0.8,7.8c0,7.6-1.9,11.1-3.7,13.1c-1.7,1.8-4.1,2.8-6.7,2.8c-1.8,0-7.2-0.8-9.2-7.8c-0.8-2.6-0.9-5.3-0.9-8.2
	C203.4,371.6,203.5,365.7,206.9,362z M127.6,343.8l9.6,31.9h-19.5L127.6,343.8z M175.7,430.9h16.4c2.6,0.1,8.7,0.4,8.7,7.8
	c0,7.6-6.7,7.6-9.3,7.6h-15.8L175.7,430.9L175.7,430.9z M200.9,480c-2.2,2.4-4.9,2.6-7.4,2.7h-17.9v-17.5h17.3
	c2.7,0.1,10.4,0.5,10.4,9C203.2,476.4,202.3,478.6,200.9,480z M258.3,459.8c0.6-2.9,2-9.9,10-9.9c3.6,0,7.7,2,8.8,6.8
	c0.3,1,0.3,2,0.4,3.1H258.3z M398.8,486.3c-10.8,0-12.3-11.1-12.3-17.5c0-7.4,2.2-16.9,12.2-17.2c12-0.4,12.3,12.9,12.3,16.9
	C411,478.5,408,486.3,398.8,486.3z M551.5,481.8c-1.8,1.8-4.2,2.9-6.7,2.9c-2.6,0-5-1-6.7-2.8c-1.8-1.9-3.7-5.5-3.7-13.1
	c0-3.1,0.3-5.5,0.8-7.8c2.3-8.3,8.6-8.3,9.5-8.3c2.4,0,7.3,1.4,9.2,7.7c0.9,2.7,1,5.5,1,8.3C555,472.1,555,478.2,551.5,481.8z"/>
</svg>
